<mxfile host="65bd71144e">
    <diagram id="UriLThxnHLhmcV7P4icS" name="Page-1">
        <mxGraphModel dx="523" dy="434" grid="1" gridSize="10" guides="1" tooltips="1" connect="1" arrows="1" fold="1" page="1" pageScale="1" pageWidth="1169" pageHeight="827" math="0" shadow="0">
            <root>
                <mxCell id="0"/>
                <mxCell id="1" parent="0"/>
                <mxCell id="3" value="token.TokenApiHandler&lt;br&gt;(struct)" style="rounded=0;whiteSpace=wrap;html=1;" parent="1" vertex="1">
                    <mxGeometry x="520" y="599" width="170" height="60" as="geometry"/>
                </mxCell>
                <mxCell id="4" value="TokenServiceImpl&lt;br&gt;(struct)" style="rounded=0;whiteSpace=wrap;html=1;" parent="1" vertex="1">
                    <mxGeometry x="304" y="599" width="120" height="60" as="geometry"/>
                </mxCell>
                <mxCell id="5" value="UserServiceImpl&lt;br&gt;(struct)" style="rounded=0;whiteSpace=wrap;html=1;" parent="1" vertex="1">
                    <mxGeometry x="104" y="599" width="120" height="60" as="geometry"/>
                </mxCell>
                <mxCell id="8" value="UserService" style="rounded=0;whiteSpace=wrap;html=1;" parent="1" vertex="1">
                    <mxGeometry x="304" y="457" width="120" height="60" as="geometry"/>
                </mxCell>
                <mxCell id="9" value="TokenService" style="rounded=0;whiteSpace=wrap;html=1;" parent="1" vertex="1">
                    <mxGeometry x="520" y="457" width="170" height="60" as="geometry"/>
                </mxCell>
                <mxCell id="10" value="" style="endArrow=classic;html=1;entryX=0.093;entryY=1.011;entryDx=0;entryDy=0;exitX=0.5;exitY=0;exitDx=0;exitDy=0;entryPerimeter=0;" parent="1" source="5" target="18" edge="1">
                    <mxGeometry width="50" height="50" relative="1" as="geometry">
                        <mxPoint x="310" y="527" as="sourcePoint"/>
                        <mxPoint x="360" y="477" as="targetPoint"/>
                        <Array as="points">
                            <mxPoint x="164" y="487"/>
                        </Array>
                    </mxGeometry>
                </mxCell>
                <mxCell id="17" value="接口具体实现" style="edgeLabel;html=1;align=center;verticalAlign=middle;resizable=0;points=[];" parent="10" vertex="1" connectable="0">
                    <mxGeometry x="-0.3571" y="1" relative="1" as="geometry">
                        <mxPoint as="offset"/>
                    </mxGeometry>
                </mxCell>
                <mxCell id="11" value="" style="endArrow=classic;html=1;entryX=0.5;entryY=1;entryDx=0;entryDy=0;" parent="1" source="4" target="8" edge="1">
                    <mxGeometry width="50" height="50" relative="1" as="geometry">
                        <mxPoint x="360" y="597" as="sourcePoint"/>
                        <mxPoint x="360" y="477" as="targetPoint"/>
                    </mxGeometry>
                </mxCell>
                <mxCell id="14" value="依赖接口" style="edgeLabel;html=1;align=center;verticalAlign=middle;resizable=0;points=[];" parent="11" vertex="1" connectable="0">
                    <mxGeometry x="-0.3171" y="-2" relative="1" as="geometry">
                        <mxPoint as="offset"/>
                    </mxGeometry>
                </mxCell>
                <mxCell id="12" value="" style="endArrow=classic;html=1;entryX=0.5;entryY=1;entryDx=0;entryDy=0;exitX=0.5;exitY=0;exitDx=0;exitDy=0;" parent="1" source="3" target="9" edge="1">
                    <mxGeometry width="50" height="50" relative="1" as="geometry">
                        <mxPoint x="440" y="527" as="sourcePoint"/>
                        <mxPoint x="490" y="477" as="targetPoint"/>
                    </mxGeometry>
                </mxCell>
                <mxCell id="15" value="依赖接口" style="edgeLabel;html=1;align=center;verticalAlign=middle;resizable=0;points=[];" parent="12" vertex="1" connectable="0">
                    <mxGeometry x="-0.5122" relative="1" as="geometry">
                        <mxPoint y="-2" as="offset"/>
                    </mxGeometry>
                </mxCell>
                <mxCell id="13" value="" style="endArrow=classic;html=1;exitX=1;exitY=0.5;exitDx=0;exitDy=0;entryX=0.623;entryY=0.998;entryDx=0;entryDy=0;entryPerimeter=0;" parent="1" source="4" target="18" edge="1">
                    <mxGeometry width="50" height="50" relative="1" as="geometry">
                        <mxPoint x="440" y="527" as="sourcePoint"/>
                        <mxPoint x="490" y="477" as="targetPoint"/>
                        <Array as="points">
                            <mxPoint x="470" y="629"/>
                            <mxPoint x="470" y="487"/>
                        </Array>
                    </mxGeometry>
                </mxCell>
                <mxCell id="16" value="1. 接口具体实现" style="edgeLabel;html=1;align=center;verticalAlign=middle;resizable=0;points=[];" parent="13" vertex="1" connectable="0">
                    <mxGeometry x="0.1008" y="-1" relative="1" as="geometry">
                        <mxPoint x="-1" y="23" as="offset"/>
                    </mxGeometry>
                </mxCell>
                <mxCell id="18" value="" style="rounded=0;whiteSpace=wrap;html=1;" parent="1" vertex="1">
                    <mxGeometry x="110" y="217" width="580" height="210" as="geometry"/>
                </mxCell>
                <mxCell id="19" value="TokenServiceImpl&lt;br&gt;(struct)" style="rounded=0;whiteSpace=wrap;html=1;" parent="1" vertex="1">
                    <mxGeometry x="330" y="252" width="120" height="60" as="geometry"/>
                </mxCell>
                <mxCell id="20" value="UserServiceImpl&lt;br&gt;(struct)" style="rounded=0;whiteSpace=wrap;html=1;" parent="1" vertex="1">
                    <mxGeometry x="130" y="252" width="120" height="60" as="geometry"/>
                </mxCell>
                <mxCell id="21" value="ioc容器&lt;br&gt;&lt;br&gt;管理着程序里面的实体对象&lt;br&gt;&lt;br&gt;1. 对象的注册&lt;br&gt;&lt;br&gt;2. 依赖方之间到ioc中寻找&lt;br&gt;符合条件的对象使用&lt;br&gt;&lt;br&gt;3. 对象统一管理：&lt;br&gt;3.1初始化：init&lt;br&gt;3.2销毁：destroy" style="text;html=1;align=left;verticalAlign=middle;resizable=0;points=[];autosize=1;strokeColor=none;fillColor=none;" parent="1" vertex="1">
                    <mxGeometry x="720" y="212" width="170" height="190" as="geometry"/>
                </mxCell>
                <mxCell id="22" value="" style="endArrow=classic;html=1;entryX=0.217;entryY=1.014;entryDx=0;entryDy=0;entryPerimeter=0;exitX=0;exitY=0.5;exitDx=0;exitDy=0;" parent="1" source="8" target="18" edge="1">
                    <mxGeometry width="50" height="50" relative="1" as="geometry">
                        <mxPoint x="340" y="537" as="sourcePoint"/>
                        <mxPoint x="390" y="487" as="targetPoint"/>
                        <Array as="points">
                            <mxPoint x="236" y="487"/>
                        </Array>
                    </mxGeometry>
                </mxCell>
                <mxCell id="23" value="2. 寻找一个符合接口条件&lt;br&gt;的实例对象" style="edgeLabel;html=1;align=center;verticalAlign=middle;resizable=0;points=[];" parent="22" vertex="1" connectable="0">
                    <mxGeometry x="0.3806" y="-1" relative="1" as="geometry">
                        <mxPoint as="offset"/>
                    </mxGeometry>
                </mxCell>
                <mxCell id="24" value="token.TokenApiHandler&lt;br&gt;(struct)" style="rounded=0;whiteSpace=wrap;html=1;" parent="1" vertex="1">
                    <mxGeometry x="490" y="347" width="170" height="60" as="geometry"/>
                </mxCell>
                <mxCell id="25" value="" style="endArrow=classic;html=1;entryX=0.5;entryY=1;entryDx=0;entryDy=0;exitX=0;exitY=0.5;exitDx=0;exitDy=0;" parent="1" source="24" target="19" edge="1">
                    <mxGeometry width="50" height="50" relative="1" as="geometry">
                        <mxPoint x="410" y="507" as="sourcePoint"/>
                        <mxPoint x="460" y="457" as="targetPoint"/>
                        <Array as="points">
                            <mxPoint x="390" y="377"/>
                        </Array>
                    </mxGeometry>
                </mxCell>
                <mxCell id="26" value="初始化时寻找依赖" style="edgeLabel;html=1;align=center;verticalAlign=middle;resizable=0;points=[];" parent="25" vertex="1" connectable="0">
                    <mxGeometry x="0.4949" relative="1" as="geometry">
                        <mxPoint as="offset"/>
                    </mxGeometry>
                </mxCell>
                <mxCell id="27" value="" style="endArrow=classic;html=1;entryX=1;entryY=0.5;entryDx=0;entryDy=0;exitX=0;exitY=0.5;exitDx=0;exitDy=0;" parent="1" source="19" target="20" edge="1">
                    <mxGeometry width="50" height="50" relative="1" as="geometry">
                        <mxPoint x="260" y="377" as="sourcePoint"/>
                        <mxPoint x="310" y="327" as="targetPoint"/>
                    </mxGeometry>
                </mxCell>
                <mxCell id="28" value="寻找依赖" style="edgeLabel;html=1;align=center;verticalAlign=middle;resizable=0;points=[];" parent="27" vertex="1" connectable="0">
                    <mxGeometry x="0.4" y="1" relative="1" as="geometry">
                        <mxPoint x="12" y="-1" as="offset"/>
                    </mxGeometry>
                </mxCell>
                <mxCell id="29" value="Actor" style="shape=umlActor;verticalLabelPosition=bottom;verticalAlign=top;html=1;outlineConnect=0;" vertex="1" parent="1">
                    <mxGeometry x="30" y="367" width="30" height="60" as="geometry"/>
                </mxCell>
                <mxCell id="30" value="" style="endArrow=classic;html=1;entryX=0;entryY=0.25;entryDx=0;entryDy=0;exitX=0.5;exitY=0;exitDx=0;exitDy=0;exitPerimeter=0;" edge="1" parent="1" source="29" target="18">
                    <mxGeometry width="50" height="50" relative="1" as="geometry">
                        <mxPoint x="30" y="347" as="sourcePoint"/>
                        <mxPoint x="80" y="297" as="targetPoint"/>
                        <Array as="points">
                            <mxPoint x="80" y="367"/>
                            <mxPoint x="80" y="267"/>
                        </Array>
                    </mxGeometry>
                </mxCell>
                <mxCell id="31" value="操作ioc完成对象&lt;br&gt;的统一管理" style="edgeLabel;html=1;align=center;verticalAlign=middle;resizable=0;points=[];" vertex="1" connectable="0" parent="30">
                    <mxGeometry x="-0.5309" y="-1" relative="1" as="geometry">
                        <mxPoint y="-39" as="offset"/>
                    </mxGeometry>
                </mxCell>
                <mxCell id="32" value="初始化程序配置，然后再进行ioc的操作" style="rounded=0;whiteSpace=wrap;html=1;" vertex="1" parent="1">
                    <mxGeometry x="110" y="120" width="580" height="60" as="geometry"/>
                </mxCell>
                <mxCell id="33" value="" style="rounded=0;whiteSpace=wrap;html=1;" vertex="1" parent="1">
                    <mxGeometry x="100" y="710" width="580" height="100" as="geometry"/>
                </mxCell>
                <mxCell id="34" value="" style="endArrow=classic;html=1;entryX=0;entryY=0.25;entryDx=0;entryDy=0;" edge="1" parent="1" target="33">
                    <mxGeometry width="50" height="50" relative="1" as="geometry">
                        <mxPoint x="60" y="430" as="sourcePoint"/>
                        <mxPoint x="130" y="480" as="targetPoint"/>
                        <Array as="points">
                            <mxPoint x="60" y="735"/>
                        </Array>
                    </mxGeometry>
                </mxCell>
                <mxCell id="35" value="参数给ioc" style="edgeLabel;html=1;align=center;verticalAlign=middle;resizable=0;points=[];" vertex="1" connectable="0" parent="34">
                    <mxGeometry x="-0.2406" relative="1" as="geometry">
                        <mxPoint as="offset"/>
                    </mxGeometry>
                </mxCell>
                <mxCell id="36" value="对象通用管理" style="rounded=0;whiteSpace=wrap;html=1;" vertex="1" parent="1">
                    <mxGeometry x="170" y="730" width="120" height="60" as="geometry"/>
                </mxCell>
                <mxCell id="37" value="" style="rounded=0;whiteSpace=wrap;html=1;" vertex="1" parent="1">
                    <mxGeometry x="300" y="580" width="120" height="60" as="geometry"/>
                </mxCell>
                <mxCell id="38" value="API路由注册" style="rounded=0;whiteSpace=wrap;html=1;" vertex="1" parent="1">
                    <mxGeometry x="340" y="730" width="120" height="60" as="geometry"/>
                </mxCell>
            </root>
        </mxGraphModel>
    </diagram>
</mxfile>